<svg width="394" height="360" viewBox="0 0 394 360" fill="none" xmlns="http://www.w3.org/2000/svg">
<path d="M377.213 294C328.17 356.818 243.378 359.5 183.939 359.5C124.5 359.5 61.4025 348.308 17.4389 294C-65.4689 191.584 183.003 0 183.003 0C183.003 0 461.892 185.538 377.213 294Z" fill="#FF6F00"/>
<ellipse cx="140.5" cy="179.5" rx="28.5" ry="27.5" fill="white"/>
<ellipse cx="254.5" cy="179.5" rx="28.5" ry="27.5" fill="white"/>
<path d="M264 243C264 251.273 262.254 259.466 258.862 267.109C255.47 274.753 250.498 281.698 244.23 287.548C237.962 293.398 230.521 298.038 222.331 301.204C214.142 304.37 205.364 306 196.5 306C187.636 306 178.858 304.37 170.669 301.204C162.479 298.038 155.038 293.398 148.77 287.548C142.502 281.698 137.53 274.753 134.138 267.109C130.746 259.466 129 251.273 129 243L196.5 243H264Z" fill="#E32828"/>
<circle cx="140" cy="180" r="10" fill="black"/>
<circle cx="254" cy="180" r="10" fill="black"/>
</svg>
